<?xml version="1.0" standalone="no"?>
<!DOCTYPE svg PUBLIC "-//W3C//DTD SVG 20010904//EN"
 "http://www.w3.org/TR/2001/REC-SVG-20010904/DTD/svg10.dtd">
<svg version="1.0" xmlns="http://www.w3.org/2000/svg"
 width="880.000000pt" height="966.000000pt" viewBox="0 0 880.000000 966.000000"
 preserveAspectRatio="xMidYMid meet">

<g transform="translate(0.000000,966.000000) scale(0.100000,-0.100000)"
fill="#000000" stroke="none">
<path d="M1540 9627 c-129 -39 -233 -108 -322 -215 -76 -91 -138 -250 -138
-353 l0 -47 303 -4 c266 -4 311 -7 378 -26 286 -78 505 -301 579 -587 42 -160
25 -364 -43 -517 -103 -231 -325 -410 -576 -464 -48 -10 -145 -14 -353 -14
l-288 0 0 -324 0 -325 318 -3 c299 -4 321 -5 387 -27 324 -107 542 -368 573
-686 36 -373 -170 -710 -516 -842 -116 -44 -194 -52 -489 -53 l-273 0 0 -319
0 -319 298 -4 c259 -5 307 -8 373 -26 298 -81 514 -296 589 -587 29 -111 29
-280 0 -390 -85 -326 -349 -560 -683 -605 -43 -5 -191 -10 -328 -10 l-249 0 0
-319 0 -319 313 -5 c348 -5 368 -8 513 -77 378 -182 554 -627 402 -1020 -71
-184 -212 -337 -393 -426 -153 -75 -169 -77 -522 -82 l-313 -3 0 -48 c0 -128
76 -296 184 -405 58 -59 91 -83 170 -122 l99 -49 3634 -3 3633 -2 0 4825 0
4825 -3592 -1 -3593 0 -75 -22z m3029 -965 c60 -45 60 -40 81 -543 11 -255 29
-670 40 -923 11 -252 20 -467 20 -478 0 -11 13 -33 29 -49 41 -40 91 -40 132
0 36 36 35 -39 9 931 -11 404 -20 795 -20 869 l0 133 39 39 c35 35 44 39 89
39 40 0 57 -6 81 -26 18 -14 36 -34 41 -45 6 -10 56 -535 111 -1166 106 -1205
107 -1226 73 -1376 -52 -228 -205 -450 -425 -615 -94 -71 -93 -65 -80 -449 40
-1154 111 -3327 113 -3424 1 -102 -2 -122 -21 -162 -26 -53 -67 -91 -131 -121
-41 -19 -63 -21 -260 -21 -180 0 -222 3 -259 18 -70 27 -111 65 -139 125 l-25
55 7 236 c3 130 11 355 16 501 28 775 90 2619 97 2880 7 283 8 280 -103 365
-196 150 -337 354 -397 570 -20 74 -38 234 -31 289 2 23 47 541 100 1151 60
692 101 1122 109 1142 27 63 119 92 185 58 17 -9 39 -33 50 -55 19 -38 20 -48
10 -382 -15 -554 -31 -1180 -33 -1366 l-2 -173 28 -25 c40 -34 90 -32 127 4
35 36 31 -22 75 1042 19 465 40 862 45 882 11 38 55 81 95 91 35 10 97 -1 124
-21z m2606 -7 l25 -24 0 -3617 0 -3616 -22 -40 c-12 -21 -38 -49 -58 -61 -33
-21 -46 -22 -246 -22 l-211 0 -36 28 c-71 54 -67 -4 -67 916 0 895 0 892 54
1032 13 35 43 104 65 152 74 158 86 216 86 422 -1 180 -1 180 -36 280 -63 180
-164 299 -343 404 -177 103 -256 192 -291 326 -21 83 -19 175 10 355 13 85 90
569 170 1075 181 1148 211 1296 336 1670 118 353 263 596 433 723 40 31 99 29
131 -3z"/>
<path d="M505 8678 c-83 -15 -187 -72 -253 -137 -263 -258 -144 -698 217 -805
80 -23 1116 -24 1206 -1 167 44 302 172 349 334 19 66 21 188 2 256 -34 127
-136 253 -249 308 -112 54 -145 57 -707 56 -283 -1 -537 -5 -565 -11z"/>
<path d="M485 6416 c-84 -20 -157 -60 -221 -119 -243 -225 -188 -628 106 -776
121 -60 148 -62 750 -59 525 3 536 4 594 26 120 45 220 132 273 237 77 151 70
338 -18 476 -40 63 -125 141 -187 173 -109 55 -121 56 -707 55 -388 0 -554 -4
-590 -13z"/>
<path d="M448 4151 c-198 -64 -338 -256 -338 -464 0 -201 145 -397 339 -457
60 -19 94 -20 626 -20 538 0 566 1 629 20 133 42 256 156 307 287 33 86 38
221 11 310 -36 117 -97 200 -196 265 -121 79 -115 78 -755 77 -519 0 -571 -2
-623 -18z"/>
<path d="M473 1900 c-93 -24 -154 -60 -223 -130 -121 -123 -167 -291 -125
-455 46 -175 196 -317 373 -354 35 -7 233 -11 580 -11 581 0 602 2 714 62 108
58 210 190 237 309 13 56 13 172 0 228 -40 174 -203 327 -383 360 -38 7 -247
11 -580 10 -478 0 -527 -2 -593 -19z"/>
</g>
</svg>
